<?xml version="1.0" encoding="utf-8" ?>
<svg baseProfile="full" height="200mm" version="1.1" viewBox="0,0,200,200" width="200mm" xmlns="http://www.w3.org/2000/svg" xmlns:ev="http://www.w3.org/2001/xml-events" xmlns:xlink="http://www.w3.org/1999/xlink"><defs /><rect fill="#1a1a1a" height="200" width="200" x="0" y="0" /><text alignment-baseline="middle" fill="#e1ed5e" style="dominant-baseline: central; font-size:9.0px; font-family:Arial;" text-anchor="middle" x="100.0" y="100.0">2023</text><line stroke="#e1ed5e" stroke-width="0.3" x1="100.0" x2="100.0" y1="15.0" y2="10.0" /><path d="M 100.0 14.0 a86.0,86.0 0 0,1 42.46469731375804,11.215312516191453" fill="none" id="id49" stroke="none" /><text fill="#e1ed5e" style="font-size:6.75px; font-family:Arial;" text-anchor="middle"><textPath startOffset="22.20632615414155" xlink:href="#id49">January</textPath></text><line stroke="#e1ed5e" stroke-width="0.3" x1="143.23703022742887" x2="145.7803849466894" y1="26.81831364943548" y2="22.513508569990506" /><path d="M 143.74570117128098 25.957352633546492 a86.0,86.0 0 0,1 28.547481713284135,27.462654790039103" fill="none" id="id50" stroke="none" /><text fill="#e1ed5e" style="font-size:6.75px; font-family:Arial;" text-anchor="middle"><textPath startOffset="19.985693538727396" xlink:href="#id50">February</textPath></text><line stroke="#e1ed5e" stroke-width="0.3" x1="172.23445277983987" x2="176.4835382374775" y1="55.19839476539836" y2="52.563006222186495" /><path d="M 173.08426987136738 54.67131705675599 a86.0,86.0 0 0,1 12.851231095245387,41.99856678651699" fill="none" id="id51" stroke="none" /><text fill="#e1ed5e" style="font-size:6.75px; font-family:Arial;" text-anchor="middle"><textPath startOffset="22.20632615414155" xlink:href="#id51">March</textPath></text><path d="M 119.47837535516314 92.15188598940014 l 38.98935461388899 -15.709364596898922 a63.03515087692547,63.03515087692547 0 0,0 0.39684064429093974,1.0099161542421877 l -39.253988808061635 15.03589943776095" fill="#ffed16" stroke="none" /><path d="M 119.61058180528143 92.48833698450437 l 42.73569411981073 -16.369536414001853 a66.76353651447141,66.76353651447141 0 0,0 0.40183831765873246,1.0767269098832732 l -43.01113702597109 15.631486367089247" fill="#b3ff20" stroke="none" /><path d="M 119.7369772167798 92.82701384747503 l 42.50843586368643 -15.44879028164915 a66.22866613933601,66.22866613933601 0 0,0 0.380174365008221,1.0748041247088103 l -42.76806330950446 14.714788530513724" fill="#c0ff1e" stroke="none" /><path d="M 120.37134235888165 94.90015583598534 l 40.6309224254044 -10.17170930414357 a62.88478873418405,62.88478873418405 0 0,0 0.253836545104131,1.0523163554843082 l -40.79999177076935 9.470807716999856" fill="#ffe915" stroke="none" /><path d="M 120.45610955862082 95.25157060432595 l 43.826713116796455 -10.173393542070995 a65.9919850504935,65.9919850504935 0 0,0 0.24733045887387917,1.108733950502216 l -43.99533796267237 9.417481422018815" fill="#c6ff1e" stroke="none" /><path d="M 120.53481517161879 95.60439243477599 l 41.52462882103741 -8.888610443455114 a63.465305772364694,63.465305772364694 0 0,0 0.21947119953138738,1.070219512525099 l -41.6714793164838 8.172515274766603" fill="#fff817" stroke="none" /><path d="M 120.87857604477298 97.74499172005257 l 36.373306718442215 -3.9285297830303487 a57.58484369093341,57.58484369093341 0 0,0 0.0979569587514153,0.9864132064851947 l -36.435540802875856 3.301841045840719" fill="#ff5608" stroke="none" /><path d="M 120.91429891909075 98.10471618934814 l 46.494313172782476 -4.213381447049879 a67.68483416086126,67.68483416086126 0 0,0 0.09516331743768208,1.161233512583738 l -46.55995097403965 3.4124340172583723" fill="#9eff22" stroke="none" /><path d="M 120.94382443527127 98.46500227214037 l 46.30458986747129 -3.3937182989530745 a67.42878812425944,67.42878812425944 0 0,0 0.07487616611172458,1.1583011487728179 l -46.35614662458744 2.5961580859272213" fill="#a4ff21" stroke="none" /><line stroke="#e1ed5e" stroke-width="0.3" x1="184.98032266829074" x2="189.97916517819016" y1="98.17113171792111" y2="98.06355123074" /><path d="M 185.9800911702706 98.14961562048488 a86.0,86.0 0 0,1 -9.607161424134198,41.387399972396054" fill="none" id="id52" stroke="none" /><text fill="#e1ed5e" style="font-size:6.75px; font-family:Arial;" text-anchor="middle"><textPath startOffset="21.466115282336823" xlink:href="#id52">April</textPath></text><path d="M 120.99824983174949 100.27111621757518 l 57.14309930744414 0.7377958195988694 a78.14786208714933,78.14786208714933 0 0,0 -0.028944246314977617,1.3449253920250164 l -57.12193299844415 -1.7213110274140004" fill="#3effb2" stroke="none" /><path d="M 120.9764740272857 100.99374915477107 l 57.74718821487565 2.7357419270889656 a78.81195404599212,78.81195404599212 0 0,0 -0.07586081833113573,1.354545871717687 l -57.69154104565698 -3.7293595151420758" fill="#3fffc1" stroke="none" /><path d="M 120.89721153311464 102.0752229133903 l 58.85301427329925 5.844469897263538 a80.14249840371292,80.14249840371292 0 0,0 -0.1481403495232266,1.3715956523636503 l -58.74369162227497 -6.85666187151198" fill="#43ffde" stroke="none" /><path d="M 120.8583938346157 102.4346265915055 l 59.46710348686024 6.941099713471172 a80.8708214604518,80.8708214604518 0 0,0 -0.17328880531847315,1.381282278764666 l -59.33881317229492 -7.963699746523233" fill="#45ffed" stroke="none" /><path d="M 120.23288151984713 105.62410040840565 l 55.85141836245303 15.52492582503299 a78.9689939102839,78.9689939102839 0 0,0 -0.3753184309496719,1.3065326952882061 l -55.57590729461726 -16.48401599582578" fill="#40ffc4" stroke="none" /><path d="M 120.13307415673323 105.97154293290107 l 54.31040970468699 16.108664813441933 a77.64900426629563,77.64900426629563 0 0,0 -0.3911040853776743,1.2781507801451735 l -54.02507884680318 -17.041142566139165" fill="#3cffa7" stroke="none" /><path d="M 120.02730092923936 106.31721596034902 l 54.19493508756322 17.094720357719037 a77.82711019622417,77.82711019622417 0 0,0 -0.41399482333003307,1.2741450522386295 l -53.89264801321694 -18.025064309935463" fill="#3dffab" stroke="none" /><path d="M 119.54520255179757 107.68017299344265 l 31.92531890249014 12.54486728352675 a55.30159882843647,55.30159882843647 0 0,0 -0.3557667347194388,0.882983859356089 l -31.70464955351331 -13.092550510725653" fill="#ff1202" stroke="none" /><path d="M 119.12269723197855 108.67885076344098 l 31.226649649616913 14.172238825079253 a55.292214884066674,55.292214884066674 0 0,0 -0.40080374269054425,0.863295604580582 l -30.978071290086536 -14.707654496938666" fill="#ff1202" stroke="none" /><path d="M 118.81262510543309 109.33194174019688 l 30.385144867281234 15.072452678973583 a54.91807568783295,54.91807568783295 0 0,0 -0.42737071341352467,0.8432429622349712 l -30.12119548408144 -15.59324985291125" fill="#ff0601" stroke="none" /><path d="M 118.64920377521936 109.65438752849418 l 41.06627326614919 21.259337462399593 a67.2428181376333,67.2428181376333 0 0,0 -0.5409764506782291,1.0233235723848262 l -40.694244307246066 -21.963076049870555" fill="#a8ff21" stroke="none" /><line stroke="#e1ed5e" stroke-width="0.3" x1="174.80103733775053" x2="179.2010983576182" y1="140.37084112569926" y2="142.7455964860345" /><path d="M 175.68104954172406 140.8457921977663 a86.0,86.0 0 0,1 -30.038265399797805,32.042727171017184" fill="none" id="id53" stroke="none" /><text fill="#e1ed5e" style="font-size:6.75px; font-family:Arial;" text-anchor="middle"><textPath startOffset="22.206326154141568" xlink:href="#id53">May</textPath></text><path d="M 118.48025628344425 109.97397251340804 l 49.53036028945432 26.732013048367918 a77.2837197777587,77.2837197777587 0 0,0 -0.641909709265717,1.16525257759624 l -49.062874170737096 -27.580636144361964" fill="#3bff9f" stroke="none" /><path d="M 118.30583269289576 110.29060199501025 l 30.90935117594394 17.375654864314463 a56.45844570876735,56.45844570876735 0 0,0 -0.48352089338386006,0.843059433712153 l -30.6056782864077 -17.90513414388493" fill="#ff3505" stroke="none" /><path d="M 118.12598468904814 110.60418214915192 l 30.676329740580638 17.94646711983106 a56.540299498400536,56.540299498400536 0 0,0 -0.4986830838501767,0.8358215327302867 l -30.362865781032234 -18.471850746447448" fill="#ff3805" stroke="none" /><path d="M 117.35343817320211 111.8261652097733 l 28.348987578869767 19.319503564155195 a55.30609734015686,55.30609734015686 0 0,0 -0.5428927968620251,0.7820775647378484 l -28.012233874845606 -19.804622391080063" fill="#ff1202" stroke="none" /><path d="M 116.71984013943494 112.70617746262583 l 27.846540111956415 21.16186981645415 a55.97505583033929,55.97505583033929 0 0,0 -0.5895857502623364,0.7621190591730134 l -27.47814754447601 -21.638066869740413" fill="#ff2703" stroke="none" /><path d="M 116.498646956653 112.99209946851258 l 44.56717495354051 35.09507001078734 a77.72651075468642,77.72651075468642 0 0,0 -0.8367891352433503,1.0440231084275156 l -43.95646790624231 -35.85702095279311" fill="#3dffa9" stroke="none" /><path d="M 116.27256486870786 113.27417163493432 l 43.42380697478749 35.42250846601531 a77.03910347434663,77.03910347434663 0 0,0 -0.8470779598496122,1.0203599711160443 l -42.80763301504433 -36.164729694245125" fill="#3bff99" stroke="none" /><path d="M 116.0416608686014 113.55231037782055 l 25.94321147911891 21.91733493447865 a54.96203457510173,54.96203457510173 0 0,0 -0.6167721493739315,0.7174453501767277 l -25.5620968201742 -22.360657383816903" fill="#ff0801" stroke="none" /><path d="M 115.32070863581623 114.36230785411682 l 41.52789318009527 38.930078272690196 a77.92202479089433,77.92202479089433 0 0,0 -0.925763556600669,0.9706593879418766 l -40.851623072115636 -39.639144777214575" fill="#3dffad" stroke="none" /><path d="M 115.07121518719521 114.62390073753431 l 24.331908856014735 23.609736537197712 a54.90370846873977,54.90370846873977 0 0,0 -0.6639672135644881,0.6725952818713139 l -23.92190101739471 -24.02507231304969" fill="#ff0600" stroke="none" /><path d="M 114.29624159901734 115.38237550388516 l 23.297819600213387 25.067833879982214 a55.22257578789871,55.22257578789871 0 0,0 -0.7018538265424008,0.641126829752873 l -22.862866224204122 -25.465153476321667" fill="#ff1001" stroke="none" /><path d="M 114.0293411484842 115.62618273729858 l 37.71901803101141 42.01225575640993 a77.4601979713653,77.4601979713653 0 0,0 -0.9998180478813422,0.8822231804041752 l -36.99025763022348 -42.655302078586395" fill="#3cffa3" stroke="none" /><path d="M 113.75828350139079 115.86535959552629 l 22.981508506769476 26.501118142440266 a56.07789896852852,56.07789896852852 0 0,0 -0.7347126670126947,0.6261380740791289 l -22.521930363179735 -26.892780606742342" fill="#ff2a04" stroke="none" /><path d="M 113.48314897796784 116.09983520530334 l 22.00396833189579 26.274297242069732 a55.27117327894839,55.27117327894839 0 0,0 -0.7346588329779508,0.6045742042221495 l -21.54843937037315 -26.64916656514906" fill="#ff1101" stroke="none" /><path d="M 112.92097659922987 116.55440617244103 l 21.999114033189823 28.185351652210088 a56.75437128525729,56.75437128525729 0 0,0 -0.7752951740073385,0.5944632791466155 l -21.51069013068899 -28.559854273184072" fill="#ff3e05" stroke="none" /><path d="M 112.63410532772338 116.77436683061366 l 20.654121819419178 27.422584106756844 a55.330611227060324,55.330611227060324 0 0,0 -0.7657098675481454,0.5664538544745529 l -20.179026981452466 -27.774047909971166" fill="#ff1302" stroke="none" /><path d="M 112.04921762599082 117.19931262002967 l 26.073967165498637 37.21854202022707 a66.4430592484585,66.4430592484585 0 0,0 -0.9423622743689155,0.6481653652289281 l -25.42944800650684 -37.66184817482109" fill="#bbff1f" stroke="none" /><path d="M 111.7513745106137 117.40417183066458 l 18.866464886588638 27.94185449768636 a54.714844358038455,54.714844358038455 0 0,0 -0.7850936647419958,0.5203172711419424 l -18.38269652310668 -28.26246978991962" fill="#ff0000" stroke="none" /><path d="M 111.45004920935366 117.60387380957326 l 31.00378906136752 47.666763720900214 a77.86260018488339,77.86260018488339 0 0,0 -1.1298167245846669,0.7211024890581168 l -30.178690534735924 -48.19338063878214" fill="#3dffac" stroke="none" /><path d="M 111.1453310114006 117.79835938074945 l 29.81842008401077 47.61805246326974 a77.18377965837868,77.18377965837868 0 0,0 -1.1321052172677237,0.6954314897686891 l -28.994335666810738 -48.124272419866806" fill="#3bff9c" stroke="none" /><line stroke="#e1ed5e" stroke-width="0.3" x1="143.8653032363475" x2="146.44561519142675" y1="172.8068346515853" y2="177.08958963109032" /><path d="M 144.38136562736335 173.6633856474863 a86.0,86.0 0 0,1 -40.68145358897372,12.25698825130547" fill="none" id="id54" stroke="none" /><text fill="#e1ed5e" style="font-size:6.75px; font-family:Arial;" text-anchor="middle"><textPath startOffset="21.466115282336833" xlink:href="#id54">June</textPath></text><path d="M 110.8373102113329 117.98757091392108 l 23.261867239759926 38.60962530424199 a66.0756878329569,66.0756878329569 0 0,0 -0.9792798570245336,0.5785758007331733 l -22.593819511707007 -39.00431967726891" fill="#c4ff1e" stroke="none" /><path d="M 108.92500713936063 119.00905698771935 l 14.606127794274656 31.109074903347214 a55.367332024536765,55.367332024536765 0 0,0 -0.8661876456681812,0.39762426430506737 l -14.068472152839055 -31.355886237986358" fill="#ff1402" stroke="none" /><path d="M 108.59647513512805 119.15986991738527 l 23.172151054424244 51.64621463215078 a77.60636068781706,77.60636068781706 0 0,0 -1.223517216132833,0.5363539916960958 l -22.27971316363366 -52.03743317714133" fill="#3cffa6" stroke="none" /><path d="M 108.2653958097858 119.30500536409082 l 22.251756004659143 51.97213526323758 a77.53532956577814,77.53532956577814 0 0,0 -1.2314402527360635,0.5147421255164363 l -21.353844292425617 -52.347462431774" fill="#3cffa4" stroke="none" /><path d="M 107.93186726928326 119.44442032107085 l 12.926087390901554 31.687403205663497 a55.22243791952171,55.22243791952171 0 0,0 -0.8832406203216092,0.35145967083495405 l -12.378725694538078 -31.90520972090452" fill="#ff1001" stroke="none" /><path d="M 107.59598834532513 119.57807347666477 l 12.321117882497077 31.7567300332464 a55.06317437172999,55.06317437172999 0 0,0 -0.8865951902167408,0.3352344380052093 l -11.772652471520063 -31.964112721358237" fill="#ff0b01" stroke="none" /><path d="M 106.91757812671514 119.82793768551818 l 11.276853134134464 32.32298025935489 a55.23364528436147,55.23364528436147 0 0,0 -0.9003880257640923,0.30546050409782444 l -10.718795375433146 -32.51230375035084" fill="#ff1001" stroke="none" /><path d="M 103.06178313531738 120.77559828337769 l 4.962636882521155 33.67375994343441 a55.037477485204555,55.037477485204555 0 0,0 -0.9384451000309664,0.13005993973306568 l -4.382263191303357 -33.75419444866008" fill="#ff0a01" stroke="none" /><path d="M 102.70371172650421 120.8252237178851 l 4.3717623128890155 33.67331188264194 a54.955916109951616,54.955916109951616 0 0,0 -0.9391510110928809,0.11371810847485318 l -3.7914838787447542 -33.743575519842146" fill="#ff0701" stroke="none" /><path d="M 102.34483914955558 120.86867818915974 l 3.791448372661033 33.74325952160616 a54.955598123211125,54.955598123211125 0 0,0 -0.9409638913880495,0.0975347547116008 l -3.210051884667381 -33.80352364477352" fill="#ff0701" stroke="none" /><path d="M 101.62511606390274 120.93702456842531 l 2.6531482147881214 34.18157668277004 a55.284389741830346,55.284389741830346 0 0,0 -0.9494099851673962,0.06547687120410586 l -2.064375468841795 -34.22218189849043" fill="#ff1201" stroke="none" /><path d="M 101.26447882468166 120.96189622390904 l 2.0610673183723955 34.16734103798802 a55.22944919359706,55.22944919359706 0 0,0 -0.9494519111352413,0.049075818779508285 l -1.4726273388236746 -34.197756663529724" fill="#ff1001" stroke="none" /><path d="M 100.90346689309514 120.98055641714683 l 1.4582952455939988 33.864932856836724 a54.89631694478593,54.89631694478593 0 0,0 -0.9444248609604328,0.03252790178138165 l -0.8751500329589138 -33.8850175570442" fill="#ff0600" stroke="none" /><line stroke="#e1ed5e" stroke-width="0.3" x1="102.19456741930631" x2="102.32365962044197" y1="184.97166512339345" y2="189.96999836594603" /><path d="M 102.22038585953345 185.97133177190398 a86.0,86.0 0 0,1 -42.740103519485714,-10.115201625700543" fill="none" id="id55" stroke="none" /><text fill="#e1ed5e" style="font-size:6.75px; font-family:Arial;" text-anchor="middle"><textPath startOffset="22.20632615414155" xlink:href="#id55">July</textPath></text><path d="M 100.54218724476979 120.99299961872073 l 0.8806704876196846 34.09876456733755 a55.1101352317237,55.1101352317237 0 0,0 -0.94852496991482,0.016329717553713544 l -0.29358582781219666 -34.108871762170416" fill="#ff0c01" stroke="none" /><path d="M 100.18074693466247 120.99922214144158 l 0.5422408039873879 62.99766642432473 a84.0,84.0 0 0,0 -1.4459754772996436,0.0 l 0.5422408039873445 -62.99766642432473" fill="#4dd2ff" stroke="none" /><path d="M 99.81925306533755 120.99922214144158 l -0.2938801605678471 34.14306741219039 a55.144332148427694,55.144332148427694 0 0,0 -0.9491135482090203,-0.016339850462817034 l 0.8815533986695353 -34.13295008444842" fill="#ff0d01" stroke="none" /><line stroke="#e1ed5e" stroke-width="0.3" x1="58.666819895761336" x2="56.23545636021788" y1="174.27360380694188" y2="178.64263932499728" /><path d="M 58.180547188652646 175.14741091055294 a86.0,86.0 0 0,1 -31.652253787137756,-30.449443065178592" fill="none" id="id56" stroke="none" /><text fill="#e1ed5e" style="font-size:6.75px; font-family:Arial;" text-anchor="middle"><textPath startOffset="22.20632615414155" xlink:href="#id56">August</textPath></text><line stroke="#e1ed5e" stroke-width="0.3" x1="26.63291911575756" x2="22.317208475507996" y1="142.92168965132927" y2="145.44649492493687" /><path d="M 25.769776987707644 143.4266507060508 a86.0,86.0 0 0,1 -11.730757126820373,-40.83630448921669" fill="none" id="id57" stroke="none" /><text fill="#e1ed5e" style="font-size:6.75px; font-family:Arial;" text-anchor="middle"><textPath startOffset="21.46611528233685" xlink:href="#id57">September</textPath></text><line stroke="#e1ed5e" stroke-width="0.3" x1="15.007084014347285" x2="10.007500721073583" y1="101.09737516637583" y2="101.16192664675087" /><path d="M 14.007167355692545 101.11028546245083 a86.0,86.0 0 0,1 10.666146001902534,-42.60595125391555" fill="none" id="id58" stroke="none" /><text fill="#e1ed5e" style="font-size:6.75px; font-family:Arial;" text-anchor="middle"><textPath startOffset="22.20632615414155" xlink:href="#id58">October</textPath></text><line stroke="#e1ed5e" stroke-width="0.3" x1="26.266209847984243" x2="21.928928074336255" y1="57.711370442889674" y2="55.22380399835377" /><path d="M 25.398753493254645 57.213857153982495 a86.0,86.0 0 0,1 29.58750427330803,-30.492523968695096" fill="none" id="id59" stroke="none" /><text fill="#e1ed5e" style="font-size:6.75px; font-family:Arial;" text-anchor="middle"><textPath startOffset="21.46611528233685" xlink:href="#id59">November</textPath></text><line stroke="#e1ed5e" stroke-width="0.3" x1="56.762969772571076" x2="54.21961505331055" y1="26.818313649435495" y2="22.513508569990535" /><path d="M 56.25429882871897 25.957352633546506 a86.0,86.0 0 0,1 42.265352541879196,-11.944610805530505" fill="none" id="id60" stroke="none" /><text fill="#e1ed5e" style="font-size:6.75px; font-family:Arial;" text-anchor="middle"><textPath startOffset="22.20632615414155" xlink:href="#id60">December</textPath></text></svg>