<?xml version="1.0" encoding="utf-8" ?>
<svg baseProfile="full" height="200mm" version="1.1" viewBox="0,0,200,200" width="200mm" xmlns="http://www.w3.org/2000/svg" xmlns:ev="http://www.w3.org/2001/xml-events" xmlns:xlink="http://www.w3.org/1999/xlink"><defs /><rect fill="#1a1a1a" height="200" width="200" x="0" y="0" /><text alignment-baseline="middle" fill="#e1ed5e" style="dominant-baseline: central; font-size:9.0px; font-family:Arial;" text-anchor="middle" x="100.0" y="100.0">2023</text><line stroke="#e1ed5e" stroke-width="0.3" x1="100.0" x2="100.0" y1="15.0" y2="10.0" /><path d="M 100.0 14.0 a86.0,86.0 0 0,1 42.46469731375804,11.215312516191453" fill="none" id="id49" stroke="none" /><text fill="#e1ed5e" style="font-size:6.75px; font-family:Arial;" text-anchor="middle"><textPath startOffset="22.20632615414155" xlink:href="#id49">January</textPath></text><line stroke="#e1ed5e" stroke-width="0.3" x1="143.23703022742887" x2="145.7803849466894" y1="26.81831364943548" y2="22.513508569990506" /><path d="M 143.74570117128098 25.957352633546492 a86.0,86.0 0 0,1 28.547481713284135,27.462654790039103" fill="none" id="id50" stroke="none" /><text fill="#e1ed5e" style="font-size:6.75px; font-family:Arial;" text-anchor="middle"><textPath startOffset="19.985693538727396" xlink:href="#id50">February</textPath></text><line stroke="#e1ed5e" stroke-width="0.3" x1="172.23445277983987" x2="176.4835382374775" y1="55.19839476539836" y2="52.563006222186495" /><path d="M 173.08426987136738 54.67131705675599 a86.0,86.0 0 0,1 12.851231095245387,41.99856678651699" fill="none" id="id51" stroke="none" /><text fill="#e1ed5e" style="font-size:6.75px; font-family:Arial;" text-anchor="middle"><textPath startOffset="22.20632615414155" xlink:href="#id51">March</textPath></text><path d="M 119.47837535516314 92.15188598940014 l 41.02715280593832 -16.530422423857686 a65.23213913969106,65.23213913969106 0 0,0 0.4106718832991211,1.0451151488726527 l -41.30561823911914 15.821758270089248" fill="#fbff18" stroke="none" /><path d="M 119.61058180528143 92.48833698450437 l 44.969296626847374 -17.22509845239619 a69.15539072428058,69.15539072428058 0 0,0 0.4162344794250634,1.1153014660957186 l -45.25913569477406 16.44847384927114" fill="#94ff23" stroke="none" /><path d="M 119.7369772167798 92.82701384747503 l 44.73016060388018 -16.25622906120974 a68.59256508047696,68.59256508047696 0 0,0 0.3937439238001969,1.1131670947101648 l -45.00335760849019 15.483864340072962" fill="#a2ff22" stroke="none" /><path d="M 120.37134235888165 94.90015583598534 l 42.75451798321061 -10.703338797252732 a65.07391824407554,65.07391824407554 0 0,0 0.26267303931460273,1.088949328797931 l -42.932423822786035 9.965804236795394" fill="#ffff18" stroke="none" /><path d="M 120.45610955862082 95.25157060432595 l 46.11733827941604 -10.70511106272094 a68.34351373570917,68.34351373570917 0 0,0 0.2561437210954121,1.1482420769342903 l -46.294776387513494 9.909690816236687" fill="#a9ff21" stroke="none" /><path d="M 120.53481517161879 95.60439243477599 l 43.694934392263406 -9.353178130478362 a65.68477629668367,65.68477629668367 0 0,0 0.22714641439671857,1.1076465860055327 l -43.84946010257512 8.599655888309417" fill="#eeff19" stroke="none" /><path d="M 120.87857604477298 97.74499172005257 l 38.27437585394653 -4.133856364312599 a59.49696891249924,59.49696891249924 0 0,0 0.10120965441664562,1.0191674079401676 l -38.3398626340454 3.4744134256679966" fill="#ff5b08" stroke="none" /><path d="M 120.91429891909075 98.10471618934814 l 48.92436179149752 -4.433595943551288 a70.1248404546622,70.1248404546622 0 0,0 0.09859391007140372,1.2030954320876397 l -48.99343018538841 3.59078659425588" fill="#7dff26" stroke="none" /><path d="M 120.94382443527127 98.46500227214037 l 48.724722502390705 -3.5710926895378248 a69.855412043419,69.855412043419 0 0,0 0.07757080590455076,1.199986033692036 l -48.77897389929967 2.731847591592753" fill="#83ff25" stroke="none" /><line stroke="#e1ed5e" stroke-width="0.3" x1="184.98032266829074" x2="189.97916517819016" y1="98.17113171792111" y2="98.06355123074" /><path d="M 185.9800911702706 98.14961562048488 a86.0,86.0 0 0,1 -9.607161424134198,41.387399972396054" fill="none" id="id52" stroke="none" /><text fill="#e1ed5e" style="font-size:6.75px; font-family:Arial;" text-anchor="middle"><textPath startOffset="21.466115282336823" xlink:href="#id52">April</textPath></text><path d="M 120.99824983174949 100.27111621757518 l 60.129712079314025 0.7763570884931371 a81.13472378809149,81.13472378809149 0 0,0 -0.03005051408061953,1.396329308098681 l -60.1074395025484 -1.8112762123819328" fill="#45ffef" stroke="none" /><path d="M 120.9764740272857 100.99374915477107 l 60.765373996752786 2.8787268522856886 a81.83352484654584,81.83352484654584 0 0,0 -0.07876924556593953,1.4064777937660133 l -60.70681840029932 -3.9242763623871255" fill="#47fffe" stroke="none" /><path d="M 120.89721153311464 102.0752229133903 l 61.928996609258725 6.149934050442615 a83.2336107730732,83.2336107730732 0 0,0 -0.1538541527603788,1.424498374031055 l -61.8139601549973 -7.2150287463584615" fill="#4be2ff" stroke="none" /><path d="M 120.8583938346157 102.4346265915055 l 62.575181503847105 7.303879774516526 a84.0,84.0 0 0,0 -0.1799939630126075,1.4347289828504204 l -62.44018603158764 -8.379926511654341" fill="#4dd2ff" stroke="none" /><path d="M 120.23288151984713 105.62410040840565 l 58.77052078129261 16.33634386698956 a81.99877247818085,81.99877247818085 0 0,0 -0.38971815522018644,1.3566600245402172 l -58.48060998918633 -17.34556136703436" fill="#47fcff" stroke="none" /><path d="M 120.13307415673323 105.97154293290107 l 57.14897053242239 16.950592266672132 a80.60979291279787,80.60979291279787 0 0,0 -0.4060170459047096,1.3268871980056463 l -56.84872671401155 -17.931806437229834" fill="#43ffe3" stroke="none" /><path d="M 120.02730092923936 106.31721596034902 l 57.027460576464904 17.988184498983365 a80.79720763856557,80.79720763856557 0 0,0 -0.42979400902271686,1.3227699459457776 l -56.70937431642594 -18.967153344906936" fill="#44ffe7" stroke="none" /><path d="M 119.54520255179757 107.68017299344265 l 33.59391172184697 13.200531069784011 a57.094389111045786,57.094389111045786 0 0,0 -0.3673001290225469,0.9116087981696207 l -33.36170897856704 -13.776839235796446" fill="#ff0e01" stroke="none" /><path d="M 119.12269723197855 108.67885076344098 l 32.85872616973144 14.912958001917076 a57.08451471011265,57.08451471011265 0 0,0 -0.41379581544091343,0.8912793734558258 l -32.59715573745069 -15.476357442651732" fill="#ff0e01" stroke="none" /><path d="M 118.81262510543309 109.33194174019688 l 31.973239717500828 15.860221984804056 a56.69082094096512,56.69082094096512 0 0,0 -0.4411661604324264,0.870462687977662 l -31.695494887282134 -16.408238884484412" fill="#ff0100" stroke="none" /><path d="M 118.64920377521936 109.65438752849418 l 43.21262265419862 22.37046740733108 a69.65972224208254,69.65972224208254 0 0,0 -0.5604207309785939,1.060104822944763 l -42.82114941499513 -23.110987245361976" fill="#88ff25" stroke="none" /><line stroke="#e1ed5e" stroke-width="0.3" x1="174.80103733775053" x2="179.2010983576182" y1="140.37084112569926" y2="142.7455964860345" /><path d="M 175.68104954172406 140.8457921977663 a86.0,86.0 0 0,1 -30.038265399797805,32.042727171017184" fill="none" id="id53" stroke="none" /><text fill="#e1ed5e" style="font-size:6.75px; font-family:Arial;" text-anchor="middle"><textPath startOffset="22.206326154141568" xlink:href="#id53">May</textPath></text><path d="M 118.48025628344425 109.97397251340804 l 52.11908943485667 28.129175130153136 a80.22541664709007,80.22541664709007 0 0,0 -0.6663431059444803,1.2096062897280109 l -51.62716991946068 -29.022151938278952" fill="#42ffda" stroke="none" /><path d="M 118.30583269289576 110.29060199501025 l 32.52484393204405 18.283802188598713 a58.311699174329085,58.311699174329085 0 0,0 -0.499392509403144,0.8707329340642702 l -32.20529942648853 -18.8409549685213" fill="#ff3505" stroke="none" /><path d="M 118.12598468904814 110.60418214915192 l 32.27964351438175 18.884448233204935 a58.397831093369106,58.397831093369106 0 0,0 -0.5150664350588888,0.863280971724689 l -31.94979620362464 -19.43729129881573" fill="#ff3805" stroke="none" /><path d="M 117.35343817320211 111.8261652097733 l 29.83066164623355 20.32924711657352 a57.09912273973956,57.09912273973956 0 0,0 -0.5604933982575121,0.8074325437629291 l -29.476307340813904 -20.83972092252347" fill="#ff0e01" stroke="none" /><path d="M 116.71984013943494 112.70617746262583 l 29.30195351022692 22.26790556594029 a57.8030446812371,57.8030446812371 0 0,0 -0.6088399727394779,0.7870077372200281 l -28.914306720269373 -22.76899129727357" fill="#ff2503" stroke="none" /><path d="M 116.498646956653 112.99209946851258 l 46.89650072577883 36.9293314630749 a80.69135031671362,80.69135031671362 0 0,0 -0.8687080456531352,1.0838468569205595 l -46.25387476807084 -37.731106153573705" fill="#44ffe5" stroke="none" /><path d="M 116.27256486870786 113.27417163493432 l 45.69337404563095 37.273883653543656 a79.96801534977965,79.96801534977965 0 0,0 -0.8792826011827926,1.05915253621402 l -45.04499544455461 -38.05489744687144" fill="#42ffd4" stroke="none" /><path d="M 116.0416608686014 113.55231037782055 l 27.299146450898863 23.062855447611486 a56.73707736154493,56.73707736154493 0 0,0 -0.6366912983481076,0.7406158205449284 l -26.898112642979978 -23.529348367317944" fill="#ff0200" stroke="none" /><path d="M 115.32070863581623 114.36230785411682 l 43.69836936468618 40.96477835700929 a80.8970829921745,80.8970829921745 0 0,0 -0.9611091532904635,1.0077191047612928 l -42.98675366001675 -41.71090457835309" fill="#44ffe9" stroke="none" /><path d="M 115.07121518719521 114.62390073753431 l 25.603628287303625 24.843711269703896 a56.6757028119535,56.6757028119535 0 0,0 -0.6853964790791397,0.6943030147000863 l -25.17219118316895 -25.280754778384647" fill="#ff0000" stroke="none" /><path d="M 114.29624159901734 115.38237550388516 l 24.5154918374218 26.378016802092535 a57.011235891623755,57.011235891623755 0 0,0 -0.7245868830916798,0.6618929379150711 l -24.057805404863256 -26.79610250659419" fill="#ff0b01" stroke="none" /><path d="M 114.0293411484842 115.62618273729858 l 39.69042144383143 44.20804739420812 a80.41111856207982,80.41111856207982 0 0,0 -1.0379070760755602,0.9158323192502019 l -38.923572014849285 -44.884702855230614" fill="#43ffde" stroke="none" /><path d="M 113.75828350139079 115.86535959552629 l 24.182648585886827 27.88621238605498 a57.91126296767235,57.91126296767235 0 0,0 -0.7587327494015155,0.6466085093954406 l -23.699050359908263 -28.298345285673367" fill="#ff2803" stroke="none" /><path d="M 113.48314897796784 116.09983520530334 l 23.154016783035708 27.647536577459586 a57.0623733549397,57.0623733549397 0 0,0 -0.7584672828332933,0.6241669375820826 l -22.67467937165772 -28.041998633898846" fill="#ff0d01" stroke="none" /><path d="M 112.92097659922987 116.55440617244103 l 23.148908771970948 29.658473205719673 a58.6230914496327,58.6230914496327 0 0,0 -0.800822894466587,0.6140368466369239 l -22.63495714901087 -30.05254939418397" fill="#ff3f05" stroke="none" /><line stroke="#e1ed5e" stroke-width="0.3" x1="143.8653032363475" x2="146.44561519142675" y1="172.8068346515853" y2="177.08958963109032" /><path d="M 144.38136562736335 173.6633856474863 a86.0,86.0 0 0,1 -40.68145358897372,12.25698825130547" fill="none" id="id54" stroke="none" /><text fill="#e1ed5e" style="font-size:6.75px; font-family:Arial;" text-anchor="middle"><textPath startOffset="21.466115282336833" xlink:href="#id54">June</textPath></text><line stroke="#e1ed5e" stroke-width="0.3" x1="102.19456741930631" x2="102.32365962044197" y1="184.97166512339345" y2="189.96999836594603" /><path d="M 102.22038585953345 185.97133177190398 a86.0,86.0 0 0,1 -42.740103519485714,-10.115201625700543" fill="none" id="id55" stroke="none" /><text fill="#e1ed5e" style="font-size:6.75px; font-family:Arial;" text-anchor="middle"><textPath startOffset="22.20632615414155" xlink:href="#id55">July</textPath></text><line stroke="#e1ed5e" stroke-width="0.3" x1="58.666819895761336" x2="56.23545636021788" y1="174.27360380694188" y2="178.64263932499728" /><path d="M 58.180547188652646 175.14741091055294 a86.0,86.0 0 0,1 -31.652253787137756,-30.449443065178592" fill="none" id="id56" stroke="none" /><text fill="#e1ed5e" style="font-size:6.75px; font-family:Arial;" text-anchor="middle"><textPath startOffset="22.20632615414155" xlink:href="#id56">August</textPath></text><line stroke="#e1ed5e" stroke-width="0.3" x1="26.63291911575756" x2="22.317208475507996" y1="142.92168965132927" y2="145.44649492493687" /><path d="M 25.769776987707644 143.4266507060508 a86.0,86.0 0 0,1 -11.730757126820373,-40.83630448921669" fill="none" id="id57" stroke="none" /><text fill="#e1ed5e" style="font-size:6.75px; font-family:Arial;" text-anchor="middle"><textPath startOffset="21.46611528233685" xlink:href="#id57">September</textPath></text><line stroke="#e1ed5e" stroke-width="0.3" x1="15.007084014347285" x2="10.007500721073583" y1="101.09737516637583" y2="101.16192664675087" /><path d="M 14.007167355692545 101.11028546245083 a86.0,86.0 0 0,1 10.666146001902534,-42.60595125391555" fill="none" id="id58" stroke="none" /><text fill="#e1ed5e" style="font-size:6.75px; font-family:Arial;" text-anchor="middle"><textPath startOffset="22.20632615414155" xlink:href="#id58">October</textPath></text><line stroke="#e1ed5e" stroke-width="0.3" x1="26.266209847984243" x2="21.928928074336255" y1="57.711370442889674" y2="55.22380399835377" /><path d="M 25.398753493254645 57.213857153982495 a86.0,86.0 0 0,1 29.58750427330803,-30.492523968695096" fill="none" id="id59" stroke="none" /><text fill="#e1ed5e" style="font-size:6.75px; font-family:Arial;" text-anchor="middle"><textPath startOffset="21.46611528233685" xlink:href="#id59">November</textPath></text><line stroke="#e1ed5e" stroke-width="0.3" x1="56.762969772571076" x2="54.21961505331055" y1="26.818313649435495" y2="22.513508569990535" /><path d="M 56.25429882871897 25.957352633546506 a86.0,86.0 0 0,1 42.265352541879196,-11.944610805530505" fill="none" id="id60" stroke="none" /><text fill="#e1ed5e" style="font-size:6.75px; font-family:Arial;" text-anchor="middle"><textPath startOffset="22.20632615414155" xlink:href="#id60">December</textPath></text></svg>