<?xml version="1.0" encoding="utf-8" ?>
<svg baseProfile="full" height="200mm" version="1.1" viewBox="0,0,200,200" width="200mm" xmlns="http://www.w3.org/2000/svg" xmlns:ev="http://www.w3.org/2001/xml-events" xmlns:xlink="http://www.w3.org/1999/xlink"><defs /><rect fill="#1a1a1a" height="200" width="200" x="0" y="0" /><text alignment-baseline="middle" fill="#e1ed5e" style="dominant-baseline: central; font-size:9.0px; font-family:Arial;" text-anchor="middle" x="100.0" y="100.0">2023</text><line stroke="#e1ed5e" stroke-width="0.3" x1="100.0" x2="100.0" y1="15.0" y2="10.0" /><path d="M 100.0 14.0 a86.0,86.0 0 0,1 42.46469731375804,11.215312516191453" fill="none" id="id49" stroke="none" /><text fill="#e1ed5e" style="font-size:6.75px; font-family:Arial;" text-anchor="middle"><textPath startOffset="22.20632615414155" xlink:href="#id49">January</textPath></text><line stroke="#e1ed5e" stroke-width="0.3" x1="143.23703022742887" x2="145.7803849466894" y1="26.81831364943548" y2="22.513508569990506" /><path d="M 143.74570117128098 25.957352633546492 a86.0,86.0 0 0,1 28.547481713284135,27.462654790039103" fill="none" id="id50" stroke="none" /><text fill="#e1ed5e" style="font-size:6.75px; font-family:Arial;" text-anchor="middle"><textPath startOffset="19.985693538727396" xlink:href="#id50">February</textPath></text><line stroke="#e1ed5e" stroke-width="0.3" x1="172.23445277983987" x2="176.4835382374775" y1="55.19839476539836" y2="52.563006222186495" /><path d="M 173.08426987136738 54.67131705675599 a86.0,86.0 0 0,1 12.851231095245387,41.99856678651699" fill="none" id="id51" stroke="none" /><text fill="#e1ed5e" style="font-size:6.75px; font-family:Arial;" text-anchor="middle"><textPath startOffset="22.20632615414155" xlink:href="#id51">March</textPath></text><path d="M 119.47837535516314 92.15188598940014 l 21.95251350670554 -8.844979402976255 a44.66741451661257,44.66741451661257 0 0,0 0.28120572900971186,0.7156379077546088 l -22.101512785596952 8.465792490325862" fill="#ff5e08" stroke="none" /><path d="M 119.61058180528143 92.48833698450437 l 24.06184743692543 -9.216681650300345 a46.766639725056464,46.766639725056464 0 0,0 0.2814804129735596,0.7542275635124518 l -24.21693243840061 8.80113094975856" fill="#ff860c" stroke="none" /><path d="M 119.7369772167798 92.82701384747503 l 23.933892255659053 -8.698265992824462 a46.46548703220543,46.46548703220543 0 0,0 0.26672720525733856,0.7540737271342368 l -24.080072541726203 8.28499463926361" fill="#ff800b" stroke="none" /><path d="M 120.37134235888165 94.90015583598534 l 22.876779627838715 -5.727065454065017 a44.582754819058806,44.582754819058806 0 0,0 0.17995977536524155,0.7460494503202403 l -22.971972203464777 5.332430772085371" fill="#ff5c08" stroke="none" /><path d="M 120.45610955862082 95.25157060432595 l 24.676133297888857 -5.728013745110519 a46.33222643194542,46.33222643194542 0 0,0 0.17364791823269815,0.7784295685021204 l -24.77107560312359 5.302406007058434" fill="#ff7e0b" stroke="none" /><path d="M 120.53481517161879 95.60439243477599 l 23.37997086851069 -5.004631206341716 a44.90960834735479,44.90960834735479 0 0,0 0.1553032084936494,0.7573135994269133 l -23.462653372919338 4.601441950751392" fill="#ff6309" stroke="none" /><path d="M 120.87857604477298 97.74499172005257 l 20.479577436649983 -2.2119140975149008 a41.59868092763535,41.59868092763535 0 0,0 0.07076306907442803,0.7125744485756748 l -20.51461763140664 1.859064118234791" fill="#ff2103" stroke="none" /><path d="M 120.91429891909075 98.10471618934814 l 26.178095226713936 -2.3722965932941134 a47.28536590625015,47.28536590625015 0 0,0 0.06648213505552858,0.8112504407504852 l -26.215051845588956 1.9213322353358595" fill="#ff900d" stroke="none" /><path d="M 120.94382443527127 98.46500227214037 l 26.071273673404693 -1.9107945626056115 a47.141202091985896,47.141202091985896 0 0,0 0.05234785581554868,0.8097981597571317 l -26.100302120224654 1.4617373385954446" fill="#ff8d0d" stroke="none" /><line stroke="#e1ed5e" stroke-width="0.3" x1="184.98032266829074" x2="189.97916517819016" y1="98.17113171792111" y2="98.06355123074" /><path d="M 185.9800911702706 98.14961562048488 a86.0,86.0 0 0,1 -9.607161424134198,41.387399972396054" fill="none" id="id52" stroke="none" /><text fill="#e1ed5e" style="font-size:6.75px; font-family:Arial;" text-anchor="middle"><textPath startOffset="21.466115282336823" xlink:href="#id52">April</textPath></text><path d="M 120.99824983174949 100.27111621757518 l 32.17377337440774 0.41540756073878354 a53.17645500345349,53.17645500345349 0 0,0 -0.0196953873166849,0.9151672570679427 l -32.16185592440605 -0.969164633596841" fill="#fff917" stroke="none" /><path d="M 120.9764740272857 100.99374915477107 l 32.51389877609667 1.5403284358004619 a53.55036444208261,53.55036444208261 0 0,0 -0.051545156032246936,0.9203733870330215 l -32.4825672691769 -2.0997735391689067" fill="#feff18" stroke="none" /><path d="M 120.89721153311464 102.0752229133903 l 33.13652158491237 3.290662429008449 a54.29951233830687,54.29951233830687 0 0,0 -0.10037057612325283,0.9293068787737924 l -33.07496870728807 -3.8605656296670325" fill="#f1ff19" stroke="none" /><path d="M 120.8583938346157 102.4346265915055 l 33.482277545443644 3.9081073980405443 a54.709586367452495,54.709586367452495 0 0,0 -0.11723089601259881,0.934445585727885 l -33.4100451401842 -4.483870738055824" fill="#eaff1a" stroke="none" /><path d="M 120.23288151984713 105.62410040840565 l 31.446507081541977 8.741133246233133 a53.638783954949545,53.638783954949545 0 0,0 -0.2549307422466531,0.8874473575319997 l -31.291383702409224 -9.281138079269715" fill="#fdff18" stroke="none" /><path d="M 120.13307415673323 105.97154293290107 l 30.578859650376025 9.069800857029467 a52.89557877047487,52.89557877047487 0 0,0 -0.26642552793853413,0.8706940405810087 l -30.418207349931357 -9.594821870162532" fill="#fff517" stroke="none" /><path d="M 120.02730092923936 106.31721596034902 l 30.513842978076763 9.624988237494444 a52.99585929245581,52.99585929245581 0 0,0 -0.28190705461999754,0.8676207010175376 l -30.343643672440518 -10.148807838489777" fill="#fff617" stroke="none" /><path d="M 119.54520255179757 107.68017299344265 l 17.975188390605958 7.063245114176574 a40.31312582728944,40.31312582728944 0 0,0 -0.2593427576371236,0.643667455910588 l -17.85094301871144 -7.371611937929976" fill="#ff0701" stroke="none" /><path d="M 119.12269723197855 108.67885076344098 l 17.581810599095768 7.979518186663737 a40.307842303938926,40.307842303938926 0 0,0 -0.2921846066227028,0.6293396487024286 l -17.441851375633235 -8.280977902644995" fill="#ff0701" stroke="none" /><path d="M 118.81262510543309 109.33194174019688 l 17.108010884196133 8.486373377836843 a40.09718747674199,40.09718747674199 0 0,0 -0.3120350340608824,0.6156747249734726 l -16.959397180348983 -8.77960231451301" fill="#ff0300" stroke="none" /><path d="M 118.64920377521936 109.65438752849418 l 23.12189897660068 11.969828621392193 a47.03649380215445,47.03649380215445 0 0,0 -0.3784141737985408,0.7158170077220317 l -22.912432294577243 -12.36606064420036" fill="#ff8b0c" stroke="none" /><line stroke="#e1ed5e" stroke-width="0.3" x1="174.80103733775053" x2="179.2010983576182" y1="140.37084112569926" y2="142.7455964860345" /><path d="M 175.68104954172406 140.8457921977663 a86.0,86.0 0 0,1 -30.038265399797805,32.042727171017184" fill="none" id="id53" stroke="none" /><text fill="#e1ed5e" style="font-size:6.75px; font-family:Arial;" text-anchor="middle"><textPath startOffset="22.206326154141568" xlink:href="#id53">May</textPath></text><path d="M 118.48025628344425 109.97397251340804 l 27.887507090433044 15.05115648404911 a52.68990948592764,52.68990948592764 0 0,0 -0.4376363427719269,0.7944370821998021 l -27.624294338209605 -15.528964084646717" fill="#fff116" stroke="none" /><path d="M 118.30583269289576 110.29060199501025 l 17.40315929547861 9.783165222253736 a40.96447533068972,40.96447533068972 0 0,0 -0.3508275769947447,0.6116974518348063 l -17.232179722331487 -10.081282519946857" fill="#ff1502" stroke="none" /><path d="M 118.12598468904814 110.60418214915192 l 17.27195922156555 10.104554582839802 a41.01056217773534,41.01056217773534 0 0,0 -0.3617114482706449,0.6062491929052329 l -17.095466897596676 -10.400365869631138" fill="#ff1602" stroke="none" /><path d="M 117.35343817320211 111.8261652097733 l 15.961575637491471 10.877627166054282 a40.31565866324634,40.31565866324634 0 0,0 -0.3957444430477412,0.5700993862255516 l -15.771970287281594 -11.150767814466853" fill="#ff0701" stroke="none" /><path d="M 116.71984013943494 112.70617746262583 l 15.67867829504876 11.91495056979905 a40.69230814710119,40.69230814710119 0 0,0 -0.4286124358952588,0.5540393509324191 l -15.471259041935433 -12.18306791484472" fill="#ff0f01" stroke="none" /><path d="M 116.498646956653 112.99209946851258 l 25.093041929316506 19.75988076899689 a52.93921791890668,52.93921791890668 0 0,0 -0.5699337581566434,0.7110799946218628 l -24.74919025910501 -20.188888597197003" fill="#fff517" stroke="none" /><path d="M 116.27256486870786 113.27417163493432 l 24.449281568436643 19.944241274119136 a52.5521810531851,52.5521810531851 0 0,0 -0.5778337533094847,0.6960379797172588 l -24.102351815233614 -20.362140510950166" fill="#ffef16" stroke="none" /><path d="M 116.0416608686014 113.55231037782055 l 14.607030714989037 12.340306628433833 a40.12193802919571,40.12193802919571 0 0,0 -0.45023977271985693,0.5237305733249779 l -14.392448432698401 -12.58991430092034" fill="#ff0300" stroke="none" /><path d="M 115.32070863581623 114.36230785411682 l 23.381808828821093 21.919138635700843 a53.049299877510734,53.049299877510734 0 0,0 -0.6302596558748395,0.6608247294398707 l -23.00104262156729 -22.31837048172322" fill="#fff717" stroke="none" /><path d="M 115.07121518719521 114.62390073753431 l 13.699805064619227 13.293194138637084 a40.0890981771288,40.0890981771288 0 0,0 -0.4848096340548046,0.49110959970518053 l -13.468954805508886 -13.527044232322929" fill="#ff0300" stroke="none" /><path d="M 114.29624159901734 115.38237550388516 l 13.11757284816106 14.114159295115101 a40.26863280138724,40.26863280138724 0 0,0 -0.5117960112877941,0.46751352174509525 l -12.872677287406404 -14.33786558344678" fill="#ff0601" stroke="none" /><path d="M 114.0293411484842 115.62618273729858 l 21.237264914625783 23.65452367891257 a52.78927352945063,52.78927352945063 0 0,0 -0.6813779178411162,0.6012367900427277 l -20.82694464387808 -24.016583610727587" fill="#fff316" stroke="none" /><path d="M 113.75828350139079 115.86535959552629 l 12.93947747777309 14.921153728394343 a40.75021280857939,40.75021280857939 0 0,0 -0.533894780022495,0.4549967141350636 l -12.680717221173548 -15.141674832752352" fill="#ff1001" stroke="none" /><path d="M 113.48314897796784 116.09983520530334 l 12.389084579383917 14.793444795320253 a40.295995067042185,40.295995067042185 0 0,0 -0.5356102820584403,0.4407707979717453 l -12.132604168780787 -15.004510712149177" fill="#ff0701" stroke="none" /><path d="M 112.92097659922987 116.55440617244103 l 12.386351421603703 15.869442286587029 a41.13109286717392,41.13109286717392 0 0,0 -0.5618728052027796,0.43082010754395633 l -12.11134988790743 -16.080301735958358" fill="#ff1802" stroke="none" /><path d="M 112.63410532772338 116.77436683061366 l 11.629068824043188 15.439974679085926 a40.329460928984744,40.329460928984744 0 0,0 -0.5581117848038217,0.41287775582951963 l -11.361572068820802 -15.637862383655214" fill="#ff0801" stroke="none" /><path d="M 112.04921762599082 117.19931262002967 l 14.680651219861591 20.955477578176477 a46.586198638498075,46.586198638498075 0 0,0 -0.6607323112413076,0.4544577085506496 l -14.3177620239974 -21.205076076092222" fill="#ff830c" stroke="none" /><path d="M 111.7513745106137 117.40417183066458 l 10.622548881562823 15.732343977921454 a39.98276038359103,39.98276038359103 0 0,0 -0.5737055865615902,0.3802207795635602 l -10.350168596261268 -15.912862778576333" fill="#ff0000" stroke="none" /><path d="M 111.45004920935366 117.60387380957326 l 17.456331474803868 26.838230198128166 a53.015841527686675,53.015841527686675 0 0,0 -0.7692805568229616,0.49099124861421795 l -16.991769115933977 -27.134735875566193" fill="#fff717" stroke="none" /><path d="M 111.1453310114006 117.79835938074945 l 16.788922928457115 26.81080387749139 a52.63363933623478,52.63363933623478 0 0,0 -0.7720121761343497,0.47423293310529374 l -16.324931552390456 -27.095825277425064" fill="#fff016" stroke="none" /><line stroke="#e1ed5e" stroke-width="0.3" x1="143.8653032363475" x2="146.44561519142675" y1="172.8068346515853" y2="177.08958963109032" /><path d="M 144.38136562736335 173.6633856474863 a86.0,86.0 0 0,1 -40.68145358897372,12.25698825130547" fill="none" id="id54" stroke="none" /><text fill="#e1ed5e" style="font-size:6.75px; font-family:Arial;" text-anchor="middle"><textPath startOffset="21.466115282336833" xlink:href="#id54">June</textPath></text><path d="M 110.8373102113329 117.98757091392108 l 13.097330279740307 21.73871122961043 a46.379354333414256,46.379354333414256 0 0,0 -0.6873688185484548,0.4061096138534423 l -12.72119359016347 -21.960939415757622" fill="#ff7f0b" stroke="none" /><path d="M 108.92500713936063 119.00905698771935 l 8.223814445245036 17.515611472921627 a40.35013615714796,40.35013615714796 0 0,0 -0.6312529096554921,0.28977724982278463 l -7.921093539822124 -17.654575793078486" fill="#ff0801" stroke="none" /><path d="M 108.59647513512805 119.15986991738527 l 13.04681660004862 29.07881485882887 a52.87156878770405,52.87156878770405 0 0,0 -0.8335563487628199,0.36540660733459057 l -12.544339576628047 -29.299086019457913" fill="#fff417" stroke="none" /><path d="M 108.2653958097858 119.30500536409082 l 12.528598615638183 29.262320770298825 a52.83157552078805,52.83157552078805 0 0,0 -0.8390875369475285,0.35073865849608116 l -12.023039619193193 -29.47364447181488" fill="#fff417" stroke="none" /><path d="M 107.93186726928326 119.44442032107085 l 7.277886768008719 17.8412326583358 a40.26855517616265,40.26855517616265 0 0,0 -0.6440647134246784,0.25628664145249835 l -6.969700978542175 -17.96386614419437" fill="#ff0601" stroke="none" /><path d="M 107.59598834532513 119.57807347666477 l 6.937265553938575 17.88026634160556 a40.17888364354441,40.17888364354441 0 0,0 -0.6469370026900132,0.24461621821853424 l -6.628458330488287 -17.997030809930724" fill="#ff0500" stroke="none" /><path d="M 106.91757812671514 119.82793768551818 l 6.349304141906368 18.199087103321734 a40.27486535570925,40.27486535570925 0 0,0 -0.6565383530065321,0.22273345549963505 l -6.035096055962609 -18.30568354571949" fill="#ff0601" stroke="none" /><path d="M 103.06178313531738 120.77559828337769 l 2.7941563606598576 18.95962827034007 a40.164415303298306,40.164415303298306 0 0,0 -0.684844227229012,0.09491316957913053 l -2.4673835422440153 -19.0049160054118" fill="#ff0400" stroke="none" /><path d="M 102.70371172650421 120.8252237178851 l 2.4614711418591932 18.959375994797274 a40.11849309684999,40.11849309684999 0 0,0 -0.6855917619505698,0.08301561456472738 l -2.1347519568572433 -18.998937138087353" fill="#ff0300" stroke="none" /><path d="M 102.34483914955558 120.86867818915974 l 2.1347319655598707 18.998759218867804 a40.118314058025554,40.118314058025554 0 0,0 -0.686916095924057,0.0712016619729923 l -1.807383273030211 -19.032690249296554" fill="#ff0300" stroke="none" /><path d="M 101.62511606390274 120.93702456842531 l 1.4938249836964521 19.24554872066795 a40.30343644643408,40.30343644643408 0 0,0 -0.6921390500554202,0.047733961243119266 l -1.1623231728621017 -19.268411026427355" fill="#ff0701" stroke="none" /><path d="M 101.26447882468166 120.96189622390904 l 1.160460556294557 19.237533502477014 a40.27250279443853,40.27250279443853 0 0,0 -0.6923263820782759,0.03578536591971367 l -0.8291461058028013 -19.25465867515893" fill="#ff0601" stroke="none" /><path d="M 100.90346689309514 120.98055641714683 l 0.8210765834083029 19.06726600902902 a40.08493646347545,40.08493646347545 0 0,0 -0.6896129404127771,0.023751664023440398 l -0.4927432913208735 -19.078574471478554" fill="#ff0300" stroke="none" /><line stroke="#e1ed5e" stroke-width="0.3" x1="102.19456741930631" x2="102.32365962044197" y1="184.97166512339345" y2="189.96999836594603" /><path d="M 102.22038585953345 185.97133177190398 a86.0,86.0 0 0,1 -42.740103519485714,-10.115201625700543" fill="none" id="id55" stroke="none" /><text fill="#e1ed5e" style="font-size:6.75px; font-family:Arial;" text-anchor="middle"><textPath startOffset="22.20632615414155" xlink:href="#id55">July</textPath></text><path d="M 100.54218724476979 120.99299961872073 l 0.4958515206492082 19.198922299159985 a40.20532442266239,40.20532442266239 0 0,0 -0.691991663204428,0.011913264034227322 l -0.16530016755211227 -19.204613040473372" fill="#ff0500" stroke="none" /><path d="M 100.18074693466247 120.99922214144158 l 0.3053025291467548 35.47012092829755 a56.47143482159067,56.47143482159067 0 0,0 -0.9720989276183961,0.0 l 0.3053025291467304 -35.47012092829755" fill="#cdff1d" stroke="none" /><path d="M 99.81925306533755 120.99922214144158 l -0.16546588826890457 19.22386651302679 a40.22457860840787,40.22457860840787 0 0,0 -0.692323055531414,-0.011918969253668869 l 0.49634863369298654 -19.21817006649396" fill="#ff0500" stroke="none" /><path d="M 99.45781275523022 120.99299961872073 l -0.656580352690103 25.422197269756044 a46.43067462302033,46.43067462302033 0 0,0 -0.7987837047292314,-0.0275117258831759 l 1.0940844090939774 -25.407128745446773" fill="#ff800b" stroke="none" /><path d="M 99.09653310690486 120.98055641714683 l -0.829092375779043 19.25341094178511 a40.2712539047366,40.2712539047366 0 0,0 -0.6923049123599898,-0.03578425618051507 l 1.1603853565525217 -19.236286878842392" fill="#ff0601" stroke="none" /><path d="M 98.01472825383883 120.90594882070398 l -2.117134058868779 22.294527873508873 a43.39482595882107,43.39482595882107 0 0,0 -0.7430173757507375,-0.07701678901131474 l 2.5005840312251095 -22.254781716041794" fill="#ff4506" stroke="none" /><path d="M 97.65516085044442 120.86867818915974 l -3.6025452337073447 32.0620530232868 a53.26381217756144,53.26381217756144 0 0,0 -0.9102343587746792,-0.11021670458325102 l 4.153907015533413 -31.995290789978206" fill="#fffb17" stroke="none" /><path d="M 96.58105272829116 120.7198165907248 l -10.256841815126537 62.1594497721744 a84.0,84.0 0 0,0 -1.4246041141118002,-0.24768568591597528 l 11.325294900710388 -61.97368550773742" fill="#4dd2ff" stroke="none" /><path d="M 93.08242187328487 119.8279376855182 l -6.245145974296768 17.90053729022676 a39.95866776751663,39.95866776751663 0 0,0 -0.6474834773610162,-0.23216453862295638 l 6.55234901228751 -17.790385210563848" fill="#ff0000" stroke="none" /><path d="M 92.7421414339146 119.70592522655815 l -7.1122804222799845 19.310663733057055 a41.57878195171794,41.57878195171794 0 0,0 -0.6694773505900342,-0.2531390490934226 l 7.443627993630302 -19.185376433856998" fill="#ff2103" stroke="none" /><path d="M 92.40401165467489 119.57807347666478 l -9.288263557707864 23.93978217664698 a46.67849315249531,46.67849315249531 0 0,0 -0.7465867643832199,-0.29708228134289577 l 9.698971398132942 -23.776353050898017" fill="#ff840c" stroke="none" /><path d="M 92.06813273071674 119.44442032107085 l -7.930718915712945 19.441605212252167 a41.99695967870391,41.99695967870391 0 0,0 -0.6670087936753353,-0.278809729852306 l 8.264199168885742 -19.302210439379888" fill="#ff2904" stroke="none" /><line stroke="#e1ed5e" stroke-width="0.3" x1="58.666819895761336" x2="56.23545636021788" y1="174.27360380694188" y2="178.64263932499728" /><path d="M 58.180547188652646 175.14741091055294 a86.0,86.0 0 0,1 -31.652253787137756,-30.449443065178592" fill="none" id="id56" stroke="none" /><text fill="#e1ed5e" style="font-size:6.75px; font-family:Arial;" text-anchor="middle"><textPath startOffset="22.20632615414155" xlink:href="#id56">August</textPath></text><line stroke="#e1ed5e" stroke-width="0.3" x1="26.63291911575756" x2="22.317208475507996" y1="142.92168965132927" y2="145.44649492493687" /><path d="M 25.769776987707644 143.4266507060508 a86.0,86.0 0 0,1 -11.730757126820373,-40.83630448921669" fill="none" id="id57" stroke="none" /><text fill="#e1ed5e" style="font-size:6.75px; font-family:Arial;" text-anchor="middle"><textPath startOffset="21.46611528233685" xlink:href="#id57">September</textPath></text><line stroke="#e1ed5e" stroke-width="0.3" x1="15.007084014347285" x2="10.007500721073583" y1="101.09737516637583" y2="101.16192664675087" /><path d="M 14.007167355692545 101.11028546245083 a86.0,86.0 0 0,1 10.666146001902534,-42.60595125391555" fill="none" id="id58" stroke="none" /><text fill="#e1ed5e" style="font-size:6.75px; font-family:Arial;" text-anchor="middle"><textPath startOffset="22.20632615414155" xlink:href="#id58">October</textPath></text><line stroke="#e1ed5e" stroke-width="0.3" x1="26.266209847984243" x2="21.928928074336255" y1="57.711370442889674" y2="55.22380399835377" /><path d="M 25.398753493254645 57.213857153982495 a86.0,86.0 0 0,1 29.58750427330803,-30.492523968695096" fill="none" id="id59" stroke="none" /><text fill="#e1ed5e" style="font-size:6.75px; font-family:Arial;" text-anchor="middle"><textPath startOffset="21.46611528233685" xlink:href="#id59">November</textPath></text><line stroke="#e1ed5e" stroke-width="0.3" x1="56.762969772571076" x2="54.21961505331055" y1="26.818313649435495" y2="22.513508569990535" /><path d="M 56.25429882871897 25.957352633546506 a86.0,86.0 0 0,1 42.265352541879196,-11.944610805530505" fill="none" id="id60" stroke="none" /><text fill="#e1ed5e" style="font-size:6.75px; font-family:Arial;" text-anchor="middle"><textPath startOffset="22.20632615414155" xlink:href="#id60">December</textPath></text></svg>