<?xml version="1.0" encoding="utf-8" ?>
<svg baseProfile="full" height="200mm" version="1.1" viewBox="0,0,200,200" width="200mm" xmlns="http://www.w3.org/2000/svg" xmlns:ev="http://www.w3.org/2001/xml-events" xmlns:xlink="http://www.w3.org/1999/xlink"><defs /><rect fill="#1a1a1a" height="200" width="200" x="0" y="0" /><text alignment-baseline="middle" fill="#e1ed5e" style="dominant-baseline: central; font-size:9.0px; font-family:Arial;" text-anchor="middle" x="100.0" y="100.0">2022</text><line stroke="#e1ed5e" stroke-width="0.3" x1="100.0" x2="100.0" y1="15.0" y2="10.0" /><path d="M 100.0 14.0 a86.0,86.0 0 0,1 42.46469731375804,11.215312516191453" fill="none" id="id37" stroke="none" /><text fill="#e1ed5e" style="font-size:6.75px; font-family:Arial;" text-anchor="middle"><textPath startOffset="22.20632615414155" xlink:href="#id37">January</textPath></text><line stroke="#e1ed5e" stroke-width="0.3" x1="143.23703022742887" x2="145.7803849466894" y1="26.81831364943548" y2="22.513508569990506" /><path d="M 143.74570117128098 25.957352633546492 a86.0,86.0 0 0,1 28.547481713284135,27.462654790039103" fill="none" id="id38" stroke="none" /><text fill="#e1ed5e" style="font-size:6.75px; font-family:Arial;" text-anchor="middle"><textPath startOffset="19.985693538727396" xlink:href="#id38">February</textPath></text><path d="M 110.99172775467656 82.1063720568725 l 13.05012914319816 -21.24453595557821 a45.93263280566265,45.93263280566265 0 0,0 0.6701370939415482,0.4196397867477023 l -13.41388538951197 21.016751827507566" fill="#efff19" stroke="none" /><line stroke="#e1ed5e" stroke-width="0.3" x1="172.23445277983987" x2="176.4835382374775" y1="55.19839476539836" y2="52.563006222186495" /><path d="M 173.08426987136738 54.67131705675599 a86.0,86.0 0 0,1 12.851231095245387,41.99856678651699" fill="none" id="id39" stroke="none" /><text fill="#e1ed5e" style="font-size:6.75px; font-family:Arial;" text-anchor="middle"><textPath startOffset="22.20632615414155" xlink:href="#id39">March</textPath></text><path d="M 120.87857604477298 97.74499172005257 l 6.2489679475125905 -0.6749250730772335 a27.285310196267805,27.285310196267805 0 0,0 0.04641474794584187,0.46739017761510976 l -6.259659821140661 0.5672593647576887" fill="#ff0000" stroke="none" /><line stroke="#e1ed5e" stroke-width="0.3" x1="184.98032266829074" x2="189.97916517819016" y1="98.17113171792111" y2="98.06355123074" /><path d="M 185.9800911702706 98.14961562048488 a86.0,86.0 0 0,1 -9.607161424134198,41.387399972396054" fill="none" id="id40" stroke="none" /><text fill="#e1ed5e" style="font-size:6.75px; font-family:Arial;" text-anchor="middle"><textPath startOffset="21.466115282336823" xlink:href="#id40">April</textPath></text><path d="M 120.81339534386255 102.79330883721812 l 30.248953705346 4.059629306309235 a51.520153839271686,51.520153839271686 0 0,0 -0.1255275029979536,0.8779390636023462 l -30.174592151331446 -4.579713841891991" fill="#a8ff21" stroke="none" /><path d="M 120.76222939487914 103.15116336523771 l 20.704743945003855 3.1424385775361525 a41.94185622244984,41.94185622244984 0 0,0 -0.11447779130961445,0.7128533157625545 l -20.647584399332953 -3.4983711229919123" fill="#ffda14" stroke="none" /><path d="M 120.70491114924044 103.5080841355445 l 20.74167474633918 3.5143130824266198 a42.03728755624734,42.03728755624734 0 0,0 -0.12701978332640218,0.7123944005382972 l -20.678108520673586 -3.870826233698135" fill="#ffdb14" stroke="none" /><path d="M 120.41448212921028 104.9243191809786 l 20.560636964954682 4.959574205156712 a42.15034677496132,42.15034677496132 0 0,0 -0.17620588311339402,0.7038549130345091 l -20.47221976754623 -5.312756957588617" fill="#ffdc14" stroke="none" /><path d="M 120.02730092923936 106.31721596034902 l 20.201654448307316 6.372212329419954 a42.182821634995335,42.182821634995335 0 0,0 -0.22438800241088025,0.6905952609596121 l -20.08897419488019 -6.719006490357361" fill="#ffdd14" stroke="none" /><path d="M 119.67450827220406 107.3425965602758 l 19.836673305462718 7.403117128257877 a42.17309025726671,42.17309025726671 0 0,0 -0.2596772294039968,0.6779353040319994 l -19.706301796465215 -7.74347599912302" fill="#ffdd14" stroke="none" /><path d="M 119.54520255179757 107.68017299344265 l 28.292773557912547 11.117479842596145 a51.39867420875205,51.39867420875205 0 0,0 -0.3306584055351614,0.8206670454398018 l -28.097212538119994 -11.602846255878761" fill="#aaff21" stroke="none" /><path d="M 119.41010516605496 108.01547362559984 l 28.74854897281484 11.871818008943707 a52.10336205106794,52.10336205106794 0 0,0 -0.34946225816546694,0.8260255488209243 l -28.539935733457064 -12.364918083430796" fill="#a1ff22" stroke="none" /><path d="M 118.97047184881838 109.00673069616215 l 56.911415546455125 27.02019208848646 a84.0,84.0 0 0,0 -0.6313869735411428,1.3008441761388982 l -56.43787531629926 -27.995825220590632" fill="#4dd2ff" stroke="none" /><line stroke="#e1ed5e" stroke-width="0.3" x1="174.80103733775053" x2="179.2010983576182" y1="140.37084112569926" y2="142.7455964860345" /><path d="M 175.68104954172406 140.8457921977663 a86.0,86.0 0 0,1 -30.038265399797805,32.042727171017184" fill="none" id="id41" stroke="none" /><text fill="#e1ed5e" style="font-size:6.75px; font-family:Arial;" text-anchor="middle"><textPath startOffset="22.206326154141568" xlink:href="#id41">May</textPath></text><path d="M 118.48025628344425 109.97397251340804 l 16.14877411519988 8.71564910571793 a39.35062518710879,39.35062518710879 0 0,0 -0.3268417778792085,0.593312764462692 l -15.996355927869164 -8.992332388578426" fill="#ffb610" stroke="none" /><path d="M 118.12598468904814 110.60418214915192 l 15.75875575509522 9.219290390992901 a39.25742857749143,39.25742857749143 0 0,0 -0.3462488830220168,0.5803330441434409 l -15.597725996374978 -9.489185529022446" fill="#ffb410" stroke="none" /><path d="M 117.94076556474637 110.91462005526583 l 26.792667380612706 16.299849840361933 a52.36131582358264,52.36131582358264 0 0,0 -0.47508010370980547,0.7659803959783877 l -26.508122637234937 -16.758626567705594" fill="#9eff22" stroke="none" /><path d="M 117.14729908036423 112.12312394758627 l 25.220772925209026 17.831062186135398 a51.88744349457858,51.88744349457858 0 0,0 -0.5218893613344793,0.7248586771601274 l -24.910103771498946 -18.262554468746657" fill="#a4ff21" stroke="none" /><path d="M 116.93607887273984 112.41649034213515 l 14.968420100037374 10.97392407095402 a39.560188840802965,39.560188840802965 0 0,0 -0.407354529725628,0.5457179614933305 l -14.777304303616653 -11.229954911956666" fill="#ffb811" stroke="none" /><path d="M 115.32070863581623 114.36230785411682 l 12.153353835720724 11.393089797463738 a37.65852648313469,37.65852648313469 0 0,0 -0.4474074115363748,0.4691048822846296 l -11.955439872805384 -11.600601796330874" fill="#ff9d0e" stroke="none" /><path d="M 115.07121518719521 114.62390073753431 l 13.511502013093951 13.110479931462864 a39.826719594319464,39.826719594319464 0 0,0 -0.481636610202944,0.4878953432954861 l -13.283824777835472 -13.341115768739016" fill="#ffbc11" stroke="none" /><path d="M 114.81725581225074 114.88116024355365 l 13.131722622266306 13.188357621137671 a39.611150307575315,39.611150307575315 0 0,0 -0.4873115508767455,0.4769369180185214 l -12.902761119013766 -13.412444642078764" fill="#ffb911" stroke="none" /><path d="M 112.04921762599082 117.19931262002967 l 17.522326570146706 25.01174614525425 a51.53881748963948,51.53881748963948 0 0,0 -0.7309753316174691,0.5027714984754297 l -17.089194353906354 -25.30965843309477" fill="#a8ff21" stroke="none" /><path d="M 111.7513745106137 117.40417183066458 l 17.426998907647988 25.809958078314178 a52.14248267128842,52.14248267128842 0 0,0 -0.7481832999701039,0.4958550940318064 l -16.980140908937923 -26.106111193437304" fill="#a1ff22" stroke="none" /><path d="M 111.1453310114006 117.79835938074945 l 16.215185956259546 25.894583730171412 a51.5526058161155,51.5526058161155 0 0,0 -0.7561559470978196,0.46449274216473735 l -15.767050809229417 -26.169864939164526" fill="#a8ff21" stroke="none" /><line stroke="#e1ed5e" stroke-width="0.3" x1="143.8653032363475" x2="146.44561519142675" y1="172.8068346515853" y2="177.08958963109032" /><path d="M 144.38136562736335 173.6633856474863 a86.0,86.0 0 0,1 -40.68145358897372,12.25698825130547" fill="none" id="id42" stroke="none" /><text fill="#e1ed5e" style="font-size:6.75px; font-family:Arial;" text-anchor="middle"><textPath startOffset="21.466115282336833" xlink:href="#id42">June</textPath></text><path d="M 110.8373102113329 117.98757091392108 l 18.995521196017737 31.52842152686108 a57.808574945028724,57.808574945028724 0 0,0 -0.8567564691884104,0.5061868235502697 l -18.449996855800944 -31.8507269227051" fill="#5fff29" stroke="none" /><path d="M 110.5260780823613 118.17145234162733 l 11.14260026946565 19.235771212612704 a43.22998953911305,43.22998953911305 0 0,0 -0.6471143103620882,0.36744839406966706 l -10.809837192182362 -19.424722772477" fill="#ffeb16" stroke="none" /><path d="M 110.21172684928248 118.3499491758327 l 10.818002413159002 19.439395255607636 a43.246780983208666,43.246780983208666 0 0,0 -0.6535972259134839,0.35639332049724015 l -10.48178237537687 -19.62272922786465" fill="#ffeb16" stroke="none" /><path d="M 109.89434966115114 118.52300852407294 l 14.255088794792101 26.686658577884796 a51.255335109695935,51.255335109695935 0 0,0 -0.7817881014137489,0.40899458507214315 l -13.793609790851857 -26.928082581901656" fill="#acff21" stroke="none" /><path d="M 109.57404056367764 118.69057910512821 l 9.619925607520717 18.780156544871367 a42.10064569021782,42.10064569021782 0 0,0 -0.6478409113726914,0.32484088191897514 l -9.295230788465265 -18.942965267699645" fill="#ffdc14" stroke="none" /><path d="M 109.2508944713604 118.85261126421891 l 9.481830994157164 19.32324213180437 a42.524237628452696,42.524237628452696 0 0,0 -0.6599100164790742,0.316796910575615 l -9.147808309677856 -19.483593318879546" fill="#ffe115" stroke="none" /><path d="M 108.92500713936063 119.00905698771935 l 9.523835143072377 20.284479569534145 a43.40900594045324,43.40900594045324 0 0,0 -0.6791070344457666,0.31174473141739634 l -9.17326011285919 -20.445411371285616" fill="#ffed16" stroke="none" /><path d="M 108.59647513512805 119.15986991738527 l 7.759462392805783 17.29433142515422 a39.955293615991394,39.955293615991394 0 0,0 -0.6299224597254185,0.27613949462895904 l -7.460619258422611 -17.425335473077634" fill="#ffbe11" stroke="none" /><path d="M 108.2653958097858 119.30500536409082 l 7.23500105510045 16.898372127872303 a39.382062475123846,39.382062475123846 0 0,0 -0.6254781818718028,0.2614499307501962 l -6.943051413731186 -17.020407101642473" fill="#ffb610" stroke="none" /><path d="M 107.93186726928326 119.44442032107085 l 6.937163599972464 17.005973536176732 a39.36647420508156,39.36647420508156 0 0,0 -0.6296366188584963,0.2505454048626781 l -6.643405905072101 -17.12286578544548" fill="#ffb610" stroke="none" /><path d="M 102.34483914955558 120.86867818915974 l 2.397477866084753 21.337154005825347 a42.4714238276523,42.4714238276523 0 0,0 -0.7272066468653273,0.07537794231617867 l -2.029838622613823 -21.375261316597285" fill="#ffe115" stroke="none" /><path d="M 100.90346689309514 120.98055641714683 l 1.3466354414951973 31.271938207750278 a52.30091925617589,52.30091925617589 0 0,0 -0.8997741769506491,0.03099004194310427 l -0.808140912869896 -31.290485048119475" fill="#9fff22" stroke="none" /><line stroke="#e1ed5e" stroke-width="0.3" x1="102.19456741930631" x2="102.32365962044197" y1="184.97166512339345" y2="189.96999836594603" /><path d="M 102.22038585953345 185.97133177190398 a86.0,86.0 0 0,1 -42.740103519485714,-10.115201625700543" fill="none" id="id43" stroke="none" /><text fill="#e1ed5e" style="font-size:6.75px; font-family:Arial;" text-anchor="middle"><textPath startOffset="22.20632615414155" xlink:href="#id43">July</textPath></text><path d="M 99.45781275523022 120.99299961872073 l -0.47021639511637725 18.206353429774634 a39.21242456863179,39.21242456863179 0 0,0 -0.6746024265780896,-0.023234671576622755 l 0.7835391733691098 -18.19556195977192" fill="#ffb410" stroke="none" /><path d="M 99.09653310690486 120.98055641714683 l -1.3479242113142977 31.301866374576495 a52.33087515871987,52.33087515871987 0 0,0 -0.8996223963172395,-0.046500202036419115 l 1.8865346760450261 -31.27402636577787" fill="#9fff22" stroke="none" /><path d="M 98.73552117531835 120.96189622390904 l -1.1115066547293153 18.426000257051474 a39.45949437325867,39.45949437325867 0 0,0 -0.6776458624681596,-0.04673442617206066 l 1.428515277976405 -18.40413748636313" fill="#ffb711" stroke="none" /><path d="M 98.37488393609728 120.93702456842531 l -1.4103850409472354 18.170558342975973 a39.22521265882024,39.22521265882024 0 0,0 -0.6727230108033581,-0.05804537204291791 l 1.7229523694921351 -18.143588718654392" fill="#ffb410" stroke="none" /><path d="M 97.65516085044442 120.86867818915974 l -3.016961293218751 26.850453409252445 a48.019417161130924,48.019417161130924 0 0,0 -0.8206119990564473,-0.09936468493589841 l 3.478700715326587 -26.794543195591196" fill="#d4ff1c" stroke="none" /><path d="M 96.58105272829116 120.7198165907248 l -2.9992600517849537 18.17638976041048 a39.422179718496615,39.422179718496615 0 0,0 -0.668583326359822,-0.11624178123665099 l 3.311692349616826 -18.122069400652823" fill="#ffb710" stroke="none" /><path d="M 93.42475214034765 119.94407469862007 l -9.55318176262774 28.97675870935401 a51.510913245754,51.510913245754 0 0,0 -0.8397021280031599,-0.2848725526910371 l 10.050553623568126 -28.808023169764848" fill="#a9ff21" stroke="none" /><path d="M 93.08242187328487 119.8279376855182 l -6.077558810783689 17.42018018053294 a39.44991595159087,39.44991595159087 0 0,0 -0.6392397491965569,-0.2292086310009807 l 6.376518120609973 -17.312984008492002" fill="#ffb711" stroke="none" /><path d="M 92.7421414339146 119.70592522655815 l -10.52061655145665 28.564690426602535 a51.44051431547145,51.44051431547145 0 0,0 -0.8282652261651364,-0.31317903669751473 l 11.01075199838207 -28.379363139798386" fill="#a9ff21" stroke="none" /><path d="M 92.40401165467489 119.57807347666478 l -11.035645133771087 28.443523274273936 a51.50933430562995,51.50933430562995 0 0,0 -0.8238523704940567,-0.3278278605947758 l 11.523618580307001 -28.249348569273092" fill="#a9ff21" stroke="none" /><path d="M 92.06813273071674 119.44442032107085 l -6.968731388883822 17.083359772653033 a39.450051444164444,39.450051444164444 0 0,0 -0.626558003853438,-0.2619012964260967 l 7.261760852234722 -16.960873433206963" fill="#ffb711" stroke="none" /><path d="M 90.42595943632237 118.69057910512821 l -16.65403422059519 32.512244119840936 a57.52947951352287,57.52947951352287 0 0,0 -0.8774864600522367,-0.45905944332804954 l 17.21121158317392 -32.22075525756817" fill="#62ff29" stroke="none" /><path d="M 90.10565033884886 118.52300852407294 l -8.674300963890758 16.238980448142893 a39.410540003142856,39.410540003142856 0 0,0 -0.5956193509017114,-0.32477916032093235 l 8.95254312666111 -16.087260636062197" fill="#ffb610" stroke="none" /><line stroke="#e1ed5e" stroke-width="0.3" x1="58.666819895761336" x2="56.23545636021788" y1="174.27360380694188" y2="178.64263932499728" /><path d="M 58.180547188652646 175.14741091055294 a86.0,86.0 0 0,1 -31.652253787137756,-30.449443065178592" fill="none" id="id44" stroke="none" /><text fill="#e1ed5e" style="font-size:6.75px; font-family:Arial;" text-anchor="middle"><textPath startOffset="22.20632615414155" xlink:href="#id44">August</textPath></text><path d="M 89.4739219176387 118.17145234162733 l -16.13823017317166 27.859861780943188 a53.19649626241227,53.19649626241227 0 0,0 -0.7884027993133945,-0.465802270557266 l 16.615400843513438 -27.577940938092173" fill="#94ff23" stroke="none" /><path d="M 88.54995079064634 117.60387380957326 l -10.044518990277345 15.442941907905196 a39.422182729442696,39.422182729442696 0 0,0 -0.5656619565370283,-0.37488990018901697 l 10.308855645554335 -15.26775398662486" fill="#ffb710" stroke="none" /><path d="M 87.95078237400918 117.19931262002967 l -10.644170294110468 15.19371781237829 a39.5512108017834,39.5512108017834 0 0,0 -0.5542304994977508,-0.39542874565920577 l 10.904128121457106 -15.008244804874867" fill="#ffb811" stroke="none" /><path d="M 87.65650970185807 116.9893568818739 l -17.966011653914745 24.728093623422673 a51.5656046725295,51.5656046725295 0 0,0 -0.713606653680561,-0.5279091424672402 l 18.38900327801387 -24.415174532215666" fill="#a8ff21" stroke="none" /><path d="M 87.07902340077011 116.55440617244103 l -37.24260283673818 47.71536961958548 a81.52906709993704,81.52906709993704 0 0,0 -1.0988662651609966,-0.8730058196940912 l 38.058426594616535 -47.067229885886256" fill="#4aebff" stroke="none" /><path d="M 86.51685102203217 116.09983520530335 l -11.908853973757088 14.22001542627829 a39.54803606023728,39.54803606023728 0 0,0 -0.5181442882736554,-0.44157380336708757 l 12.1518637386078 -14.01291723268825" fill="#ffb811" stroke="none" /><path d="M 85.70375840098266 115.38237550388516 l -21.12549699213412 22.730472564309483 a52.0316130125634,52.0316130125634 0 0,0 -0.6508019151068989,-0.6153738317409744 l 21.513634741631837 -22.36346409582258" fill="#a2ff22" stroke="none" /><path d="M 85.44109423537348 115.13401014063109 l -12.914230307548468 13.424366885301948 a39.62769364971399,39.62769364971399 0 0,0 -0.4875150734114784,-0.47713610765457726 l 13.143395333335741 -13.2000806747248" fill="#ffb911" stroke="none" /><path d="M 83.72743513129214 113.27417163493432 l -23.74829505246578 19.37241898292856 a51.64754696789127,51.64754696789127 0 0,0 -0.5560278693212141,-0.6937302601715085 l 24.078240833841857 -18.960760889178793" fill="#a7ff21" stroke="none" /><path d="M 83.50135304334701 112.99209946851258 l -24.369274370487222 19.189939479805275 a52.01798366404036,52.01798366404036 0 0,0 -0.5479058746927433,-0.7082422014955464 l 24.695987062398032 -18.767619284196474" fill="#a2ff22" stroke="none" /><path d="M 82.85270091963577 112.12312394758628 l -24.97270305705863 17.655677028090768 a51.58363662640984,51.58363662640984 0 0,0 -0.5063525742593452,-0.7294386487801169 l 25.27291653848011 -17.22319711712364" fill="#a8ff21" stroke="none" /><line stroke="#e1ed5e" stroke-width="0.3" x1="26.63291911575756" x2="22.317208475507996" y1="142.92168965132927" y2="145.44649492493687" /><path d="M 25.769776987707644 143.4266507060508 a86.0,86.0 0 0,1 -11.730757126820373,-40.83630448921669" fill="none" id="id45" stroke="none" /><text fill="#e1ed5e" style="font-size:6.75px; font-family:Arial;" text-anchor="middle"><textPath startOffset="21.46611528233685" xlink:href="#id45">September</textPath></text><path d="M 81.87401531095188 110.60418214915194 l -26.323694274551684 15.40005984307123 a51.49751995540359,51.49751995540359 0 0,0 -0.44103457938487883,-0.7689809640728749 l 26.58488085008894 -14.944659033140049" fill="#a9ff21" stroke="none" /><path d="M 81.02952815118164 109.00673069616217 l -17.826016797907386 8.463370545736607 a40.73310710135934,40.73310710135934 0 0,0 -0.2952672778956572,-0.635979448377049 l 17.96905869264287 -8.155271030080732" fill="#ffc912" stroke="none" /><path d="M 80.0844068197444 106.66101706037122 l -20.36647976192306 6.811821667876309 a42.475437418776146,42.475437418776146 0 0,0 -0.2259445476738884,-0.6953858146904386 l 20.480716560613196 -6.460236953208067" fill="#ffe115" stroke="none" /><path d="M 79.86692584326677 105.97154293290107 l -17.72921890159931 5.258550731672269 a39.49263525456546,39.49263525456546 0 0,0 -0.18769789462747916,-0.6534009948486864 l 17.817109433112893 -4.952592261318986" fill="#ffb811" stroke="none" /><path d="M 79.50377843672027 104.57218783832718 l -23.798441073514894 5.308829362110936 a45.38338505469599,45.38338505469599 0 0,0 -0.1635227360048772,-0.7639237830928591 l 23.88629784824421 -4.898391759601914" fill="#f6ff19" stroke="none" /><path d="M 79.4281124754447 104.21870165774334 l -21.668740121055237 4.44363453576103 a43.119678711980356,43.119678711980356 0 0,0 -0.142849473240962,-0.7283863864911981 l 21.742019527271864 -4.069984422201876" fill="#ffea15" stroke="none" /><path d="M 79.35854240842038 103.8639653848113 l -32.377597679593414 6.060905152760655 a53.939997006259325,53.939997006259325 0 0,0 -0.1629849862028888,-0.9141063580968706 l 32.47712910813549 -5.50268004393057" fill="#8bff24" stroke="none" /><path d="M 79.18660465613746 102.79330883721812 l -30.743747494967057 4.126034226905577 a52.01938375396728,52.01938375396728 0 0,0 -0.11146636946845503,-0.8884966374027656 l 30.810215373682357 -3.5962198352154022" fill="#a2ff22" stroke="none" /><path d="M 79.1416061653843 102.43462659150553 l -30.550612624027067 3.5659185683705013 a51.75801857954461,51.75801857954461 0 0,0 -0.09567272191065322,-0.8858105833068628 l 30.60746764743877 -3.0395116631788563" fill="#a5ff21" stroke="none" /><path d="M 79.10278846688536 102.07522291339032 l -27.088386683693052 2.6900450638448583 a48.221628084499194,48.221628084499194 0 0,0 -0.07491667068730992,-0.8266992183289935 l 27.13067795065744 -2.2233644569672983" fill="#d2ff1c" stroke="none" /><path d="M 79.07016306316243 101.71520430193888 l -20.261521571943117 1.6604357247933377 a41.32944424244023,41.32944424244023 0 0,0 -0.052003149779797274,-0.7095416620504281 l 20.28710128038725 -1.311420926246149" fill="#ffd113" stroke="none" /><path d="M 79.0235259727143 100.99374915477108 l -30.59604577219089 1.449471183093121 a51.63036048767003,51.63036048767003 0 0,0 -0.03441499652147682,-0.8880981406198063 l 30.61646290156357 -0.922595795459318" fill="#a7ff21" stroke="none" /><path d="M 79.0095281055655 100.63252640178507 l -18.403830016242683 0.5545805943659928 a39.412183979702206,39.412183979702206 0 0,0 -0.014597404592432245,-0.6782840320103575 l 18.410649483520125 -0.23770674656550644" fill="#ffb610" stroke="none" /><line stroke="#e1ed5e" stroke-width="0.3" x1="15.007084014347285" x2="10.007500721073583" y1="101.09737516637583" y2="101.16192664675087" /><path d="M 14.007167355692545 101.11028546245083 a86.0,86.0 0 0,1 10.666146001902534,-42.60595125391555" fill="none" id="id46" stroke="none" /><text fill="#e1ed5e" style="font-size:6.75px; font-family:Arial;" text-anchor="middle"><textPath startOffset="22.20632615414155" xlink:href="#id46">October</textPath></text><path d="M 79.00175016825051 100.2711162175752 l -30.624455604248798 0.3954037424666619 a51.62700810030523,51.62700810030523 0 0,0 -0.0038245845922140354,-0.8886987665220198 l 30.626724486130517 0.13180450225903328" fill="#a7ff21" stroke="none" /><path d="M 79.00019446554 99.90962569577889 l -18.47084380867729 -0.07949071979961658 a39.471014855147686,39.471014855147686 0 0,0 0.008771949780262762,-0.679397177509161 l 18.466738851779315 0.3974241553692495" fill="#ffb711" stroke="none" /><path d="M 79.03285615573316 98.82574320788736 l -18.471423283199293 -1.0344849261009517 a39.50036856847579,39.50036856847579 0 0,0 0.04386310714879568,-0.6785428533210894 l 18.450879585046085 1.352286843675053" fill="#ffb811" stroke="none" /><path d="M 79.05617556472873 98.46500227214037 l -33.16748134392921 -2.43088403739757 a54.25644322388019,54.25644322388019 0 0,0 0.07628330915729584,-0.9308495902557319 l 33.12072355095242 3.0014475448610805" fill="#88ff25" stroke="none" /><path d="M 79.08570108090925 98.10471618934814 l -37.313098077863785 -3.3813665466781293 a58.46599695579014,58.46599695579014 0 0,0 0.09945587910070915,-1.001507129845619 l 37.249365073080845 4.023149207228179" fill="#57ff2a" stroke="none" /><path d="M 79.12142395522702 97.74499172005258 l -18.430482243895423 -1.9905998366116084 a39.53766877069667,39.53766877069667 0 0,0 0.07890522577337734,-0.6760117878169621 l 18.393486665118456 2.3075553627534324" fill="#ffb811" stroke="none" /><path d="M 79.21141760316559 97.0276538004421 l -20.15456233574744 -2.881694173217603 a41.359532024422506,41.359532024422506 0 0,0 0.10683385059206509,-0.7039015931702999 l 20.101972591716073 3.228194878779995" fill="#ffd213" stroke="none" /><path d="M 79.54389044137918 95.25157060432595 l -29.41060217443477 -6.827015054321833 a51.192576153995276,51.192576153995276 0 0,0 0.206640539429008,-0.8566584423769018 l 29.288728834744948 7.332258728358131" fill="#acff20" stroke="none" /><path d="M 79.62865764111835 94.90015583598534 l -32.752674161605825 -8.199436798828057 a54.76341849627045,54.76341849627045 0 0,0 0.23679615613251495,-0.9124721848099283 l 32.606681673603 8.762005409186848" fill="#82ff25" stroke="none" /><path d="M 79.81627453868168 94.20196356495316 l -21.522977791814277 -6.182754004794735 a43.39341465946487,43.39341465946487 0 0,0 0.21240891100854264,-0.7161372537948788 l 21.41336298369403 6.552320645336153" fill="#ffed16" stroke="none" /><path d="M 80.02781315780177 93.51064311812611 l -31.834858617656216 -10.34377259166637 a54.47315125043157,54.47315125043157 0 0,0 0.29743042567400213,-0.8892791151061181 l 31.652090898210442 10.89022480969481" fill="#85ff25" stroke="none" /><path d="M 80.14247586403 93.16781622104843 l -24.533188117952253 -8.440893676257547 a46.94467200187195,46.94467200187195 0 0,0 0.2694778848676026,-0.7618502688029608 l 24.38425715227484 8.861941571487119" fill="#e2ff1b" stroke="none" /><path d="M 80.2630227832202 92.82701384747504 l -30.357947151247647 -11.032952622038447 a53.30063465008219,53.30063465008219 0 0,0 0.32080741189150214,-0.8596043684588105 l 30.163535150854518 11.553880127526599" fill="#93ff23" stroke="none" /><path d="M 80.38941819471856 92.48833698450439 l -20.22405370253095 -7.746648096885402 a42.65693664625341,42.65693664625341 0 0,0 0.26854867461536974,-0.6834270848919208 l 20.08771147803389 8.093624186673086" fill="#ffe315" stroke="none" /><path d="M 80.52162464483688 92.15188598940014 l -29.46362520649681 -11.871312959624095 a52.76528422183962,52.76528422183962 0 0,0 0.34668880513807865,-0.8395344407512039 l 29.25491471447253 12.37672197082861" fill="#99ff23" stroke="none" /><path d="M 80.803312248108 91.48605970444005 l -19.64868910452062 -8.714407823058954 a42.49446178048426,42.49446178048426 0 0,0 0.3023130538997026,-0.6661067411541525 l 19.495773733657565 9.051336573055178" fill="#ffe115" stroke="none" /><line stroke="#e1ed5e" stroke-width="0.3" x1="26.266209847984243" x2="21.928928074336255" y1="57.711370442889674" y2="55.22380399835377" /><path d="M 25.398753493254645 57.213857153982495 a86.0,86.0 0 0,1 29.58750427330803,-30.492523968695096" fill="none" id="id47" stroke="none" /><text fill="#e1ed5e" style="font-size:6.75px; font-family:Arial;" text-anchor="middle"><textPath startOffset="21.46611528233685" xlink:href="#id47">November</textPath></text><path d="M 82.7489923806493 88.02491185347247 l -20.865557125983365 -14.484190797630681 a46.400064118813646,46.400064118813646 0 0,0 0.46110037247082336,-0.6521937767037971 l 20.613144133708662 14.841211074666264" fill="#e9ff1a" stroke="none" /><path d="M 85.31137513191541 84.99185889309783 l -21.92875193334275 -22.405759985671022 a52.351048497451885,52.351048497451885 0 0,0 0.649444064192603,-0.6247646751994197 l 21.53982462553772 22.779907747632755" fill="#9eff22" stroke="none" /><path d="M 86.37877921826538 84.01681056812374 l -18.14834725607052 -21.29533591131672 a48.979525365930314,48.979525365930314 0 0,0 0.6463955380232218,-0.5413376737539445 l 17.779094181088187 21.60457474246448" fill="#c8ff1d" stroke="none" /><line stroke="#e1ed5e" stroke-width="0.3" x1="56.762969772571076" x2="54.21961505331055" y1="26.818313649435495" y2="22.513508569990535" /><path d="M 56.25429882871897 25.957352633546506 a86.0,86.0 0 0,1 42.265352541879196,-11.944610805530505" fill="none" id="id48" stroke="none" /><text fill="#e1ed5e" style="font-size:6.75px; font-family:Arial;" text-anchor="middle"><textPath startOffset="22.20632615414155" xlink:href="#id48">December</textPath></text><path d="M 89.94658935756843 81.56283822128135 l -14.91653538480219 -27.355748795024024 a52.1583057951249,52.1583057951249 0 0,0 0.791949246069856,-0.4230318603112788 l 14.443441092204027 27.60845938183705" fill="#a1ff22" stroke="none" /><path d="M 90.26544431104013 81.39251694778311 l -14.541535427572303 -27.79596549317953 a52.36992110747758,52.36992110747758 0 0,0 0.802355851530226,-0.41099783082412905 l 14.060919088453312 28.042155849316163" fill="#9eff22" stroke="none" /><path d="M 90.91171255644093 81.06846463323043 l -13.926089662440704 -29.009014140738397 a53.17854680845451,53.17854680845451 0 0,0 0.8286275812928563,-0.38905176009981324 l 13.42468386984824 29.24443088347822" fill="#94ff23" stroke="none" /><path d="M 91.56875222667455 80.76684994638697 l -13.99581530938586 -31.92690135613241 a55.8598605329776,55.8598605329776 0 0,0 0.8839589972703136,-0.37846511069357064 l 13.444172554325238 32.163085994788766" fill="#75ff27" stroke="none" /><path d="M 92.23578459929587 80.48803036053334 l -11.210275680628285 -28.17213941677011 a51.3206154316435,51.3206154316435 0 0,0 0.8236148277638696,-0.31954975754831155 l 10.72367768786474 28.360931878208973" fill="#abff21" stroke="none" /><path d="M 92.57280143429618 80.3572730644239 l -10.941935277632853 -28.938158163396594 a51.93772689629384,51.93772689629384 0 0,0 0.8389616629723934,-0.3089966607614586 l 10.442191288887889 29.122218091964374" fill="#a3ff21" stroke="none" /><path d="M 95.33964822691252 79.52364482259891 l -4.736152068411126 -20.809401660836507 a42.34156352981525,42.34156352981525 0 0,0 0.7120586300604848,-0.15562843685800007 l 4.377250714197121 20.887843595790375" fill="#ffdf14" stroke="none" /><path d="M 96.75951476605007 79.25152402106235 l -3.6334867918893847 -23.264822388778462 a44.54685089450906,44.54685089450906 0 0,0 0.7586350335283921,-0.11180308359045246 l 3.232482777932344 23.323919956529885" fill="#fffd17" stroke="none" /><path d="M 97.11714578562143 79.19881850522333 l -2.9684305942537854 -21.41865628783834 a42.62337664125237,42.62337664125237 0 0,0 0.7276120355786281,-0.09446492482335488 l 2.5993038301672997 21.46657953582583" fill="#ffe315" stroke="none" /><path d="M 97.47563105711357 79.15227682838746 l -2.753489738531464 -22.73993743527149 a43.90603545575401,43.90603545575401 0 0,0 0.7510718977423674,-0.08439167895512416 l 2.3616511372793787 22.78396506769721" fill="#fff417" stroke="none" /><path d="M 97.83486435360386 79.11191278185805 l -2.7041086898918563 -26.08781498554761 a47.227586517384914,47.227586517384914 0 0,0 0.8093343664656554,-0.07685605014732524 l 2.2546491963359645 26.130496580210114" fill="#deff1b" stroke="none" /><path d="M 98.19473922651362 79.07773832637324 l -3.0258445333137014 -35.06834693330244 a56.19864616393999,56.19864616393999 0 0,0 0.9645020677161332,-0.07486392341902887 l 2.421752276235234 35.115236118909934" fill="#71ff27" stroke="none" /></svg>